<?xml version="1.0" standalone="no"?><!DOCTYPE svg PUBLIC "-//W3C//DTD SVG 1.1//EN" "http://www.w3.org/Graphics/SVG/1.1/DTD/svg11.dtd"><svg t="1550210028945" class="icon" style="" viewBox="0 0 1174 1024" version="1.1" xmlns="http://www.w3.org/2000/svg" p-id="17122" xmlns:xlink="http://www.w3.org/1999/xlink" width="229.296875" height="200"><defs><style type="text/css"></style></defs><path d="M898.320878 512.562706L624.2205 644.11088c-32.011723 15.130541-69.150324 15.130541-101.287093 0L248.332846 512.562706c-11.629259-5.752106-25.384296-5.126878-36.388326 1.50055-11.00403 6.752473-17.881548 18.631823-18.256686 31.511539v312.364392c0 91.783612 170.062279 166.060813 379.88912 166.060813s379.88912-74.277201 379.889119-166.060813V545.574795c-0.375137-13.004762-7.377702-25.009159-18.506777-31.636585-11.129076-6.752473-24.884113-7.252656-36.638418-1.375504zM590.082998 3.751374c-10.628892-5.001832-22.88338-5.001832-33.512272 0l-530.069117 253.968006c-12.754671 6.127244-20.882647 19.006961-20.882648 33.137135s8.127977 27.009891 20.882648 33.137135l33.012089 15.75577v228.958847c0.375137 15.380633 13.004762 27.760166 28.385395 27.63512 7.502748 0.125046 14.630358-2.751007 20.007327-7.877884 5.376969-5.251923 8.378068-12.379534 8.378068-19.757236V367.134449l440.161192 210.827207c10.628892 5.126878 22.88338 5.126878 33.512272 0l530.569301-253.968006c12.754671-6.127244 20.882647-19.006961 20.882647-33.137135s-8.127977-27.009891-20.882647-33.137135L590.082998 3.751374zM86.898727 631.35621c-7.377702 0-14.630358 2.876053-19.882281 8.127976-5.502015 5.001832-8.62816 12.129442-8.503114 19.507144v36.888509c0.375137 15.380633 13.004762 27.63512 28.385395 27.63512 7.502748 0.125046 14.630358-2.625962 20.007327-7.877885 5.376969-5.251923 8.378068-12.254488 8.503114-19.757235V658.99133c0-7.252656-2.876053-14.380266-8.002931-19.507144-5.502015-5.251923-12.879717-8.127977-20.50751-8.127976z m0 0" fill="" p-id="17123"></path></svg>