<?xml version="1.0" standalone="no"?><!DOCTYPE svg PUBLIC "-//W3C//DTD SVG 1.1//EN" "http://www.w3.org/Graphics/SVG/1.1/DTD/svg11.dtd"><svg t="1550210100083" class="icon" style="" viewBox="0 0 1024 1024" version="1.1" xmlns="http://www.w3.org/2000/svg" p-id="18035" xmlns:xlink="http://www.w3.org/1999/xlink" width="200" height="200"><defs><style type="text/css"></style></defs><path d="M911.1 717.4h-34V552.3c0-38-30.8-68.8-68.8-68.8H570.6c-7.5 0-13.6-6.1-13.6-13.6v-61.3h53.2c41 0 74.2-33.2 74.2-74.2V138.5c0-41-33.2-74.2-74.2-74.2H414.4c-41 0-74.2 33.2-74.2 74.2v195.9c0 41 33.2 74.2 74.2 74.2h52.8v61.3c0 7.5-6.1 13.6-13.6 13.6h-238c-39 0-70.6 31.6-70.6 70.6v163.3h-33c-27.4 0-49.7 22.2-49.7 49.7V910c0 27.4 22.2 49.7 49.7 49.7h142.9c27.4 0 49.7-22.2 49.7-49.7V767c0-27.4-22.2-49.7-49.7-49.7h-35v-157h233.8c7.5 0 13.6 6.1 13.6 13.6v143.6h-25.6c-27.4 0-49.7 22.2-49.7 49.7v142.9c0 27.4 22.2 49.7 49.7 49.7h142.9c27.4 0 49.7-22.2 49.7-49.7V767c0-27.4-22.2-49.7-49.7-49.7H557V573.8c0-7.5 6.1-13.6 13.6-13.6h232.7v157.1h-35c-27.4 0-49.7 22.2-49.7 49.7v142.9c0 27.4 22.2 49.7 49.7 49.7h142.9c27.4 0 49.7-22.2 49.7-49.7V767c-0.2-27.4-22.4-49.6-49.8-49.6z" p-id="18036"></path></svg>
