<?xml version="1.0" standalone="no"?><!DOCTYPE svg PUBLIC "-//W3C//DTD SVG 1.1//EN" "http://www.w3.org/Graphics/SVG/1.1/DTD/svg11.dtd"><svg t="1545363477314" class="icon" style="" viewBox="0 0 1024 1024" version="1.1" xmlns="http://www.w3.org/2000/svg" p-id="11341" xmlns:xlink="http://www.w3.org/1999/xlink" width="200" height="200"><defs><style type="text/css"></style></defs><path d="M511.998977 962.9209c-248.285806 0-449.610044-201.865567-449.610044-450.965925 0-249.00826 201.324238-450.875874 449.610044-450.875874 248.375857 0 449.611068 201.867614 449.611068 450.875874C961.610044 761.055332 760.374834 962.9209 511.998977 962.9209L511.998977 962.9209zM511.998977 130.479727c-210.103182 0-380.482641 170.830737-380.482641 381.475248 0 210.735585 170.379459 381.567345 380.482641 381.567345 210.100112 0 380.482641-170.83176 380.482641-381.567345C892.481617 301.311487 722.099089 130.479727 511.998977 130.479727L511.998977 130.479727zM601.305979 498.201739c19.727297 21.173229 29.67895 48.589648 29.67895 82.158185 0 35.560914-10.402931 64.154135-31.216979 85.687568-20.812001 21.536502-47.594995 32.302707-80.165808 32.302707-35.018561 0-63.792908-13.663184-86.414115-40.897456-22.529109-27.326369-33.746592-72.02643-33.746592-134.096091 0-63.699788 11.670807-109.664655 35.195593-137.805576 23.433712-28.139897 53.928237-42.255383 91.477434-42.255383 26.330692 0 48.1353 7.419993 65.422012 22.167882 17.189498 14.747889 28.230971 36.193317 32.931017 64.243163l-64.330144 7.147794c-1.540076-13.300934-5.611811-22.982434-12.213159-29.316699-6.606465-6.333242-15.204283-9.500375-25.789363-9.500375-14.026458 0-25.876344 6.333242-35.561937 18.909675-9.683547 12.667507-15.740496 38.908148-18.275225 78.81095 16.556071-19.634176 37.09485-29.40675 61.706387-29.40675C557.783743 466.352357 581.489654 476.93846 601.305979 498.201739L601.305979 498.201739zM487.207337 530.504446c-8.870018 10.042727-13.207813 24.882714-13.207813 44.51689 0 21.715581 4.972245 38.544875 14.836917 50.308803 9.955746 11.761881 21.263279 17.73492 34.021861 17.73492 12.304234 0 22.530133-4.886287 30.66951-14.567787 8.236592-9.589402 12.308327-25.51614 12.308327-47.50392 0-22.621207-4.433986-39.270399-13.21293-49.76645-8.862855-10.586103-19.815301-15.833617-33.023114-15.833617C506.841513 515.394307 495.985258 520.461719 487.207337 530.504446L487.207337 530.504446z" p-id="11342"></path></svg>