<?xml version="1.0" standalone="no"?><!DOCTYPE svg PUBLIC "-//W3C//DTD SVG 1.1//EN" "http://www.w3.org/Graphics/SVG/1.1/DTD/svg11.dtd"><svg t="1545363420879" class="icon" style="" viewBox="0 0 1024 1024" version="1.1" xmlns="http://www.w3.org/2000/svg" p-id="6639" xmlns:xlink="http://www.w3.org/1999/xlink" width="200" height="200"><defs><style type="text/css"></style></defs><path d="M511.998977 962.9209c-248.284783 0-449.610044-201.865567-449.610044-450.965925 0-249.00826 201.325261-450.875874 449.610044-450.875874 248.37688 0 449.611068 201.867614 449.611068 450.875874C961.610044 761.055332 760.37688 962.9209 511.998977 962.9209L511.998977 962.9209zM511.998977 130.479727c-210.104205 0-380.482641 170.830737-380.482641 381.475248 0 210.735585 170.378435 381.567345 380.482641 381.567345 210.099089 0 380.478548-170.83176 380.478548-381.567345C892.477524 301.311487 722.098066 130.479727 511.998977 130.479727L511.998977 130.479727zM587.281567 699.254801l-64.246233 0 0-69.851904-142.147464 0 0-58.090023 150.655232-221.050512 55.738465 0L587.281567 571.130725l42.97886 0 0 58.271148-42.97886 0L587.281567 699.254801 587.281567 699.254801zM523.035334 452.054723 443.143773 571.130725l79.892585 0L523.036357 452.054723 523.035334 452.054723z" p-id="6640"></path></svg>