<?xml version="1.0" standalone="no"?><!DOCTYPE svg PUBLIC "-//W3C//DTD SVG 1.1//EN" "http://www.w3.org/Graphics/SVG/1.1/DTD/svg11.dtd"><svg t="1550209913958" class="icon" style="" viewBox="0 0 1098 1024" version="1.1" xmlns="http://www.w3.org/2000/svg" p-id="13789" xmlns:xlink="http://www.w3.org/1999/xlink" width="214.453125" height="200"><defs><style type="text/css"></style></defs><path d="M1084.22334 604.26004l0.523181 1.184041L647.546367 989.362403h-0.715932a154.200653 154.200653 0 0 1-194.127608 0.509413H451.587626L21.078679 610.951247c-1.073897-0.963754-2.24417-1.831133-3.262996-2.863726l-2.478225-2.202867 0.192751-0.619556a62.299817 62.299817 0 0 1 29.972752-101.139107l0.715931-2.464456h14.745438c0.426805 0 0.812307-0.110143 1.211576-0.110144s0.812307 0.110143 1.211577 0.110144h123.181539V104.498478c0-57.715101 46.411643-104.498478 103.686171-104.498478h518.362016c57.26076 0 103.686171 46.810912 103.686171 104.498478v397.176825h123.167772c0.413037 0 0.812307-0.110143 1.225344-0.110144s0.798539 0.110143 1.211577 0.110144h1.459399v0.137679a62.313585 62.313585 0 0 1 44.787029 102.447058zM684.265397 438.852304a41.799391 41.799391 0 0 0 0-83.598782h-82.965458v-4.268054l90.950849-91.666781a42.308804 42.308804 0 0 0 0-59.518698 41.524033 41.524033 0 0 0-59.050589 0l-84.452394 85.127021-84.121963-84.782823a41.510265 41.510265 0 0 0-59.050589 0 42.308804 42.308804 0 0 0 0 59.518698l92.024747 92.740678v2.836191h-82.951691a41.799391 41.799391 0 0 0 0 83.598783h82.951691v41.799391h-82.951691a41.799391 41.799391 0 0 0 0 83.598782h82.951691v52.318079a51.836202 51.836202 0 1 0 103.672403 0v-52.318079H684.265397a41.799391 41.799391 0 0 0 0-83.598782h-82.965458v-41.785624z m0 0" p-id="13790"></path></svg>