<?xml version="1.0" standalone="no"?><!DOCTYPE svg PUBLIC "-//W3C//DTD SVG 1.1//EN" "http://www.w3.org/Graphics/SVG/1.1/DTD/svg11.dtd"><svg t="1545363438733" class="icon" style="" viewBox="0 0 1024 1024" version="1.1" xmlns="http://www.w3.org/2000/svg" p-id="7511" xmlns:xlink="http://www.w3.org/1999/xlink" width="200" height="200"><defs><style type="text/css"></style></defs><path d="M511.997953 962.922946c-248.377904 0-449.607998-201.86659-449.607998-450.967972 0-249.009284 201.230094-450.878944 449.607998-450.878944 248.285806 0 449.612091 201.868637 449.612091 450.878944C961.610044 761.056356 760.28376 962.922946 511.997953 962.922946L511.997953 962.922946zM511.997953 130.47768c-210.100112 0-380.480594 170.83176-380.480594 381.477294 0 210.736609 170.380482 381.569392 380.480594 381.569392 210.104205 0 380.484687-170.832783 380.484687-381.569392C892.482641 301.30944 722.102159 130.47768 511.997953 130.47768L511.997953 130.47768zM595.968413 471.057519c20.538779 21.534456 30.764678 49.4042 30.764678 83.787288 0 28.593222-8.234545 54.198389-24.791639 76.639494-22.620184 30.673603-53.928237 46.055942-93.925183 46.055942-32.029484 0-58.087976-8.686846-78.264505-25.877367-20.182668-17.192567-32.304753-40.356127-36.196387-69.492724l66.142419-6.876618c1.90028 15.020088 7.511067 26.965142 16.832364 35.650965 9.31618 8.775874 19.995403 13.20986 32.208563 13.20986 13.847379 0 25.607214-5.700839 35.199687-17.010419 9.593496-11.30958 14.384615-28.322046 14.384615-51.123354 0-21.444405-4.700045-37.459147-14.293541-48.13837-9.502421-10.67513-21.895683-16.014742-37.281091-16.014742-19.000749 0-36.19127 8.506744-51.300386 25.517163l-53.837162-7.872295 34.108842-181.056636 175.62902 0 0 62.342884L486.028489 390.798591l-10.494005 59.086723c14.836917-7.421017 29.952172-11.130502 45.422516-11.130502C550.455847 438.753789 575.428611 449.521017 595.968413 471.057519L595.968413 471.057519z" p-id="7512"></path></svg>