<?xml version="1.0" standalone="no"?><!DOCTYPE svg PUBLIC "-//W3C//DTD SVG 1.1//EN" "http://www.w3.org/Graphics/SVG/1.1/DTD/svg11.dtd"><svg t="1550209889804" class="icon" style="" viewBox="0 0 1025 1024" version="1.1" xmlns="http://www.w3.org/2000/svg" p-id="13482" xmlns:xlink="http://www.w3.org/1999/xlink" width="200.1953125" height="200"><defs><style type="text/css"></style></defs><path d="M114.144 29.376c32.064-32.192 19.2-32.192 51.392 0 51.392 57.792 109.248 109.184 160.576 167.04 12.864 12.864 12.864 19.328 0 32.192-25.728 19.2-25.728 19.2 0 38.528C364.64 312 409.568 350.528 448.224 382.72c6.464 6.464 6.464 19.328 0 25.6C428.896 427.648 416.032 446.976 396.832 459.712c-6.464 6.464-12.864 6.464-19.328 0l0 0L248.992 331.328c-12.864-12.864-19.2-12.864-32.064 0-19.328 25.6-19.328 25.6-38.656 0-44.992-38.656-141.312-134.912-173.44-173.44-6.464-6.464-6.464-12.864 0-19.328L114.144 29.376 114.144 29.376z" p-id="13483"></path><path d="M788.64 22.912c-57.792 64.256-115.712 128.512-179.968 192.768-12.8 12.864-12.8 25.6-6.464 44.928 19.328 44.928 32.192 89.856 44.864 134.912 6.528 12.736 12.864 19.2 25.728 19.2 44.928 6.464 96.384 19.328 141.376 25.728 19.264 6.464 25.6 0 38.528-12.864 51.456-51.392 96.384-109.184 147.776-160.576L1019.936 247.68c6.528 32.192 6.528 64.256 0 89.984-25.6 115.648-109.248 186.24-224.896 205.504-38.528 6.464-77.12 0-115.648-12.864-6.528 0-25.728 0-32.256 6.464-102.656 64.192-192.576 147.712-269.696 244.096C370.976 793.728 364.576 800.256 370.976 813.12c25.728 89.856-32.064 179.904-115.648 198.976-96.32 19.392-173.44-38.592-192.768-121.984-19.2-96.384 51.52-192.768 154.304-192.768l44.928 0c6.464 0 12.864 0 19.328-6.464C371.104 607.488 448.224 511.232 512.416 402.048 518.88 395.584 518.88 382.72 512.416 369.856c-57.792-154.112 38.528-321.28 199.104-346.88C737.312 16.512 762.912 22.912 788.64 22.912L788.64 22.912 788.64 22.912zM306.848 858.112c0-51.392-38.528-89.984-89.856-89.984-51.392 0-90.048 38.656-90.048 89.984 0 51.328 38.656 89.856 90.048 89.856C268.32 948.032 306.848 903.104 306.848 858.112L306.848 858.112z" p-id="13484"></path><path d="M807.968 1018.752c-25.728 0-51.456-6.528-70.656-25.6-77.12-77.12-147.84-154.24-224.832-231.36-6.464-6.4-6.464-19.264 0-25.536 44.992-70.656 102.784-128.64 186.368-160.576 12.672-6.528 19.2-6.528 25.536 6.208 70.656 70.656 141.376 134.976 212.032 199.232 51.52 44.992 51.52 109.248 0 154.176l-51.392 51.328C865.76 1005.888 840.032 1018.752 807.968 1018.752L807.968 1018.752zM910.816 825.984l-192.832-192.768c-12.8-12.864-25.536-6.464-38.592 0-12.8 12.672-12.8 25.536 0 38.528 0 6.528 199.104 199.104 199.104 199.104s19.264 6.528 38.656-6.336C923.616 851.776 910.816 825.984 910.816 825.984L910.816 825.984zM589.472 716.736c-12.736 12.864-6.336 38.656 0 44.992 57.792 64.256 122.048 121.984 186.304 186.24 12.864 12.864 32.192 19.392 44.864 6.528 12.864-12.864 12.864-32.128-6.336-44.992-57.792-64.256-122.048-121.984-186.304-179.904C628.192 716.736 608.8 703.872 589.472 716.736L589.472 716.736z" p-id="13485"></path></svg>